<svg id="Travelbuddy_Logo" data-name="Travelbuddy Logo" xmlns="http://www.w3.org/2000/svg" width="241.035" height="69" viewBox="0 0 241.035 69">
  <g id="header-logo" transform="translate(99 45)">
    <g id="Group_1" data-name="Group 1">
      <path id="Path_1" data-name="Path 1" d="M14.9,20.5A8.858,8.858,0,0,1,6.8,26C3,26-.6,23.7.1,19.2L.9,13c.7-4.6,4.8-6.5,8.6-6.5,2.5,0,5.7,1.1,6.2,5.1l-5.4,1.6a1.571,1.571,0,0,0-1.6-1.6,1.769,1.769,0,0,0-1.9,1.6l-.9,6a1.376,1.376,0,0,0,1.4,1.6,2.616,2.616,0,0,0,2.3-1.6Z" transform="translate(-0.012 -2)" fill="rgba(255,255,255,0.8)"/>
      <path id="Path_2" data-name="Path 2" d="M16.5,13.4c.7-4.6,4.8-6.9,8.7-6.9,3.8,0,7.3,2.3,6.7,6.9l-.9,6c-.6,4.4-4.8,6.6-8.6,6.6s-7.3-2.2-6.7-6.6Zm6-.1-.8,6.1a1.265,1.265,0,0,0,1.4,1.4,1.65,1.65,0,0,0,1.8-1.4l.8-6.1a1.312,1.312,0,0,0-1.4-1.4A1.921,1.921,0,0,0,22.5,13.3Z" transform="translate(-0.012 -2)" fill="rgba(255,255,255,0.8)"/>
      <path id="Path_3" data-name="Path 3" d="M45.2,7l-.7,5.1c-1.6-.6-4.5-.3-4.8,1.8L38,25.6H31.9l1.6-11.8c.7-5.1,4.1-7.3,8.6-7.3A11.83,11.83,0,0,1,45.2,7Z" transform="translate(-0.012 -2)" fill="rgba(255,255,255,0.8)"/>
      <path id="Path_4" data-name="Path 4" d="M55.3,20l2.9,3a9.693,9.693,0,0,1-7.4,3c-3.8,0-7.3-2.4-6.7-7l.8-5.4a8.564,8.564,0,0,1,8.7-7.2c3.9,0,6.9,2.3,6.2,6.9-.7,4.4-5.5,6.2-9.8,5.2C49.7,21.4,53.5,21.6,55.3,20Zm-4.7-5c1.5.7,3.5.2,3.7-1.7a1.36,1.36,0,0,0-1.4-1.7,1.947,1.947,0,0,0-2,1.7Z" transform="translate(-0.012 -2)" fill="rgba(255,255,255,0.8)"/>
      <path id="Path_5" data-name="Path 5" d="M62.1,8a18.8,18.8,0,0,1,7.1-1.5c4.5,0,8.1,1.9,7.4,7.1L74.9,25.7H68.8l1.7-12c.2-1.3-.7-1.7-1.6-1.7a5.853,5.853,0,0,0-1.3.2L65.7,25.7H59.6Z" transform="translate(-0.012 -2)" fill="rgba(255,255,255,0.8)"/>
      <path id="Path_6" data-name="Path 6" d="M92.3,22.523A24.953,24.953,0,0,1,84.3,24c-3.9,0-7.4-1.569-6.7-6.277l.9-5.908C79.1,7.938,82.6,6,86.2,6a7.231,7.231,0,0,1,2.4.369L89.6,0h6.2ZM87.9,10.892a4.011,4.011,0,0,0-1.2-.185,2.129,2.129,0,0,0-2.2,1.477l-.9,6c-.1,1.015.8,1.385,1.8,1.385a5.4,5.4,0,0,0,1.2-.185Z" transform="translate(-0.012)" fill="rgba(255,255,255,0.8)"/>
      <path id="Path_7" data-name="Path 7" d="M95.7,13.4c.7-4.6,4.8-6.9,8.7-6.9,3.8,0,7.3,2.3,6.7,6.9l-.8,5.9c-.6,4.4-4.8,6.6-8.6,6.6s-7.3-2.2-6.7-6.6Zm6-.1-.8,6.1a1.265,1.265,0,0,0,1.4,1.4,1.65,1.65,0,0,0,1.8-1.4l.8-6.1a1.312,1.312,0,0,0-1.4-1.4A1.921,1.921,0,0,0,101.7,13.3Z" transform="translate(-0.012 -2)" fill="rgba(255,255,255,0.8)"/>
      <path id="Path_8" data-name="Path 8" d="M113.7,8a18.8,18.8,0,0,1,7.1-1.5c4.5,0,8.1,1.9,7.4,7.1l-1.7,12.1h-6.1l1.7-12c.2-1.3-.7-1.7-1.6-1.7a5.853,5.853,0,0,0-1.3.2l-1.9,13.5h-6.1Z" transform="translate(-0.012 -2)" fill="rgba(255,255,255,0.8)"/>
    </g>
    <g id="Group_2" data-name="Group 2" transform="translate(130.417 12.4)">
      <path id="Path_9" data-name="Path 9" d="M137,14.4a4.925,4.925,0,0,1,5,5.7,7.026,7.026,0,0,1-6.6,5.9,4.885,4.885,0,0,1-4.9-5.9A6.656,6.656,0,0,1,137,14.4Z" transform="translate(-130.429 -14.4)" fill="#ffc61e"/>
    </g>
  </g>
  <text id="TravelBuddy" transform="translate(0 40)" fill="#fff" font-size="43" font-family="Roboto-Bold, Roboto" font-weight="700"><tspan x="0" y="0">TravelBuddy</tspan></text>
  <text id="Powered_by" data-name="Powered by" transform="translate(0 65)" fill="rgba(255,255,255,0.8)" font-size="18" font-family="Roboto-Bold, Roboto" font-weight="700"><tspan x="0" y="0">Powered by</tspan></text>
</svg>
